#!OML:ASF I:\Actors\actors\Patient Classification 2\Patient 1\Session 1\actor1.ASF
:FULLY-SPECIFIED
:DEGREES
1011
root -0.941033 18.2708 5.5495 2.36901 -1.07653 -3.91893
lowerback 11.0167 1.60328 1.6924
upperback -1.14554 2.49039 1.68887
thorax -7.40751 1.18276 0.401263
lowerneck -17.6967 -1.1505 -0.525187
upperneck 33.8892 -0.905985 -1.62875
head 14.67 -0.676223 -0.735485
rclavicle 1.39149e-015 7.25564e-015
rhumerus -22.9504 25.3747 -92.7288
rradius 64.7099
rwrist 11.9019
rhand -6.8583 -46.0091
rfingers 7.12502
rthumb 19.0071 -75.1004
lclavicle 1.39149e-015 7.25564e-015
lhumerus -7.13199 -37.2967 90.4262
lradius 65.0544
lwrist -7.10003
lhand 5.88256 -25.3042
lfingers 7.12502
lthumb 31.2114 2.05676
rfemur 0 0 0
rtibia 0
rfoot 0 0
rtoes 0
lfemur 13.2778 -7.04741 -12.8255
ltibia -16.6846
lfoot -2.83681 20.0154
ltoes -9.4152
1012
root -0.936091 18.2695 5.53427 2.29299 -1.31626 -3.96096
lowerback 11.1083 1.63369 1.67257
upperback -1.12243 2.53263 1.7219
thorax -7.4375 1.20454 0.437629
lowerneck -17.789 -1.16441 -0.591542
upperneck 33.9505 -0.903991 -1.62674
head 14.7201 -0.684431 -0.724636
rclavicle 3.36692e-014 1.5704e-014
rhumerus -21.8066 25.4418 -92.8995
rradius 61.7279
rwrist 11.9968
rhand -9.38971 -46.0792
rfingers 7.12502
rthumb 16.5713 -75.3916
lclavicle 3.36692e-014 1.5704e-014
lhumerus -6.02978 -37.5597 90.2641
lradius 63.4818
lwrist -7.27907
lhand 5.41627 -25.1126
lfingers 7.12502
lthumb 30.7669 2.33308
rfemur 0 0 0
rtibia 0
rfoot 0 0
rtoes 0
lfemur 13.362 -7.02215 -12.8264
ltibia -16.6656
lfoot -2.88803 20.2355
ltoes -9.43875
1013
root -0.933311 18.2717 5.52196 2.3701 -1.47926 -4.04382
lowerback 11.0759 1.61752 1.71913
upperback -1.17398 2.51896 1.73452
thorax -7.47284 1.19586 0.427443
lowerneck -17.8812 -1.1676 -0.641571
upperneck 34.0022 -0.911733 -1.57187
head 14.7659 -0.687377 -0.696422
rclavicle 1.87603e-014 -4.57205e-015
rhumerus -20.9786 26.1178 -93.2786
rradius 59.2287
rwrist 10.5391
rhand -12.9346 -46.0941
rfingers 7.12502
rthumb 13.1562 -75.659
lclavicle 1.87603e-014 -4.57205e-015
lhumerus -5.22379 -37.6043 90.2273
lradius 62.0171
lwrist -7.32864
lhand 4.87941 -25.1576
lfingers 7.12502
lthumb 30.2549 2.38322
rfemur 0 0 0
rtibia 0
rfoot 0 0
rtoes 0
lfemur 13.2641 -6.85566 -12.7306
ltibia -16.6507
lfoot -2.86678 20.2685
ltoes -9.30386
1014
root -0.928561 18.2711 5.51039 2.32538 -1.52071 -4.06506
lowerback 11.1547 1.5492 1.75266
upperback -1.17177 2.43419 1.72773
thorax -7.5139 1.1525 0.413898
lowerneck -18.0189 -1.15469 -0.59703
upperneck 34.0096 -0.879281 -1.65142
head 14.8003 -0.680169 -0.733102
rclavicle -2.64321e-014 -2.41523e-014
rhumerus -19.9348 25.7602 -93.2321
rradius 57.2113
rwrist 13.847
rhand -10.1196 -45.8785
rfingers 7.12502
rthumb 15.8684 -75.2482
lclavicle -2.64321e-014 -2.41523e-014
lhumerus -4.55279 -37.5087 90.2523
lradius 60.7368
lwrist -7.31486
lhand 4.23516 -25.3323
lfingers 7.12502
lthumb 29.6402 2.31948
rfemur 0 0 0
rtibia 0
rfoot 0 0
rtoes 0
lfemur 13.2648 -6.84131 -12.7236
ltibia -16.6204
lfoot -2.91466 20.2828
ltoes -9.09579
1015
root -0.924458 18.2722 5.50051 2.30987 -1.60486 -3.99116
lowerback 11.1543 1.51637 1.63786
upperback -1.13986 2.37328 1.72128
thorax -7.48391 1.12776 0.482552
lowerneck -18.1555 -1.12179 -0.490611
upperneck 33.9536 -0.808827 -1.81393
head 14.8046 -0.660413 -0.807268
rclavicle 1.06474e-014 -1.39149e-014
rhumerus -19.1118 25.7028 -93.2527
rradius 55.5991
rwrist 16.3808
rhand -9.58956 -45.2307
rfingers 7.12502
rthumb 16.3789 -74.5592
lclavicle 1.06474e-014 -1.39149e-014
lhumerus -3.93747 -37.3287 90.3345
lradius 59.6777
lwrist -7.19833
lhand 3.7075 -25.2544
lfingers 7.12502
lthumb 29.1364 2.48579
rfemur 0 0 0
rtibia 0
rfoot 0 0
rtoes 0
lfemur 13.2364 -6.78719 -12.8227
ltibia -16.5719
lfoot -2.95953 20.3125
ltoes -8.98598
1016
root -0.920538 18.2737 5.49109 2.30622 -1.67427 -3.95439
lowerback 11.1281 1.48818 1.5649
upperback -1.11443 2.32368 1.71331
thorax -7.44418 1.10682 0.52473
lowerneck -18.2322 -1.08724 -0.386869
upperneck 33.8724 -0.762566 -1.9044
head 14.7837 -0.640801 -0.854323
rclavicle 1.93318e-014 1.35174e-014
rhumerus -18.5648 25.9525 -93.3543
rradius 54.4212
rwrist 18.0315
rhand -9.96916 -44.9303
rfingers 7.12502
rthumb 16.0133 -74.2885
lclavicle 1.93318e-014 1.35174e-014
lhumerus -3.51669 -37.0554 90.5116
lradius 58.8484
lwrist -7.1414
lhand 3.40484 -25.0239
lfingers 7.12502
lthumb 28.8473 2.76603
rfemur 0 0 0
rtibia 0
rfoot 0 0
rtoes 0
lfemur 13.1903 -6.71121 -12.8737
ltibia -16.5191
lfoot -2.93114 20.3131
ltoes -8.95432
1017
root -0.917427 18.2759 5.48344 2.34587 -1.71731 -3.96277
lowerback 11.0562 1.45705 1.53119
upperback -1.12024 2.27547 1.70886
thorax -7.4104 1.08495 0.549097
lowerneck -18.275 -1.08324 -0.336346
upperneck 33.8083 -0.778376 -1.89965
head 14.7631 -0.640884 -0.863556
rclavicle -1.60581e-014 -2.68359e-015
rhumerus -18.2055 26.3335 -93.4912
rradius 53.6163
rwrist 18.471
rhand -9.95073 -44.9982
rfingers 7.12502
rthumb 16.0311 -74.3549
lclavicle -1.60581e-014 -2.68359e-015
lhumerus -3.34224 -36.7044 90.7756
lradius 58.2315
lwrist -7.20134
lhand 3.18617 -24.9998
lfingers 7.12502
lthumb 28.6384 2.82559
rfemur 0 0 0
rtibia 0
rfoot 0 0
rtoes 0
lfemur 13.0991 -6.67846 -12.8689
ltibia -16.4666
lfoot -2.88967 20.3131
ltoes -9.10833
1018
root -0.913959 18.2773 5.47722 2.37908 -1.76896 -3.96024
lowerback 10.9859 1.42977 1.50149
upperback -1.12351 2.23236 1.69633
thorax -7.37424 1.06523 0.561717
lowerneck -18.34 -1.0986 -0.325404
upperneck 33.7887 -0.824819 -1.84995
head 14.7683 -0.65279 -0.853651
rclavicle 1.40205e-014 2.41523e-014
rhumerus -17.9425 26.6126 -93.6444
rradius 53.1542
rwrist 17.1014
rhand -9.42869 -45.4255
rfingers 7.12502
rthumb 16.5337 -74.7411
lclavicle 1.40205e-014 2.41523e-014
lhumerus -3.26702 -36.3256 91.046
lradius 57.7442
lwrist -7.34538
lhand 3.03213 -25.087
lfingers 7.12502
lthumb 28.4913 2.7631
rfemur 0 0 0
rtibia 0
rfoot 0 0
rtoes 0
lfemur 13.0352 -6.62281 -12.8785
ltibia -16.4371
lfoot -2.89276 20.297
ltoes -9.19311
1019
root -0.91067 18.2776 5.47102 2.36765 -1.80344 -3.96601
lowerback 10.952 1.39254 1.51221
upperback -1.10464 2.18136 1.67828
thorax -7.33344 1.03988 0.546387
lowerneck -18.3967 -1.10722 -0.334838
upperneck 33.7486 -0.840428 -1.83658
head 14.7627 -0.659381 -0.849346
rclavicle 1.09953e-015 -1.39149e-015
rhumerus -17.8861 26.5779 -93.8682
rradius 53.1742
rwrist 13.7944
rhand -8.73235 -46.5795
rfingers 7.12502
rthumb 17.2041 -75.8379
lclavicle 1.09953e-015 -1.39149e-015
lhumerus -3.19554 -35.9604 91.2752
lradius 57.3321
lwrist -7.54693
lhand 3.01294 -25.0866
lfingers 7.12502
lthumb 28.4729 2.7666
rfemur 0 0 0
rtibia 0
rfoot 0 0
rtoes 0
lfemur 13.0309 -6.61283 -12.8789
ltibia -16.4235
lfoot -2.96397 20.3116
ltoes -8.76371
